<?xml version="1.0" encoding="UTF-8" standalone="no"?>
<!-- Generator: Adobe Illustrator 19.0.0, SVG Export Plug-In . SVG Version: 6.00 Build 0)  -->

<svg
   xmlns:dc="http://purl.org/dc/elements/1.1/"
   xmlns:cc="http://creativecommons.org/ns#"
   xmlns:rdf="http://www.w3.org/1999/02/22-rdf-syntax-ns#"
   xmlns:svg="http://www.w3.org/2000/svg"
   xmlns="http://www.w3.org/2000/svg"
   xmlns:sodipodi="http://sodipodi.sourceforge.net/DTD/sodipodi-0.dtd"
   xmlns:inkscape="http://www.inkscape.org/namespaces/inkscape"
   version="1.1"
   id="Capa_1"
   x="0px"
   y="0px"
   viewBox="0 0 58 58"
   style="enable-background:new 0 0 58 58;"
   xml:space="preserve"
   inkscape:version="0.91 r13725"
   sodipodi:docname="locked.svg"><metadata
     id="metadata55"><rdf:RDF><cc:Work
         rdf:about=""><dc:format>image/svg+xml</dc:format><dc:type
           rdf:resource="http://purl.org/dc/dcmitype/StillImage" /></cc:Work></rdf:RDF></metadata><defs
     id="defs53" /><sodipodi:namedview
     pagecolor="#ffffff"
     bordercolor="#666666"
     borderopacity="1"
     objecttolerance="10"
     gridtolerance="10"
     guidetolerance="10"
     inkscape:pageopacity="0"
     inkscape:pageshadow="2"
     inkscape:window-width="1920"
     inkscape:window-height="1080"
     id="namedview51"
     showgrid="false"
     inkscape:zoom="4.0689655"
     inkscape:cx="-9.8305085"
     inkscape:cy="29"
     inkscape:window-x="0"
     inkscape:window-y="0"
     inkscape:window-maximized="0"
     inkscape:current-layer="Capa_1" /><path
     style="fill:#c7cac7;stroke:#c7cac7;stroke-width:2;stroke-miterlimit:10"
     d="m 42,32 c -9,0 -18,0 -27,0 0.0252,-6.455414 -0.05111,-12.913518 0.03944,-19.367205 0.4477,-6.5548426 6.702737,-11.63538158 13.112658,-11.628672 6.422039,-0.31037716 12.92565,4.4612193 13.73924,10.994031 0.234101,4.535513 0.05017,9.08994 0.108663,13.633336 0,2.122837 0,4.245673 0,6.36851 z M 19,28 c 6.333333,0 12.666667,0 19,0 -0.03071,-5.0919 0.06274,-10.188157 -0.04914,-15.277216 C 37.355514,7.0922738 30.834727,3.7453434 25.678223,5.387301 21.634163,6.3967157 18.544957,10.392335 19,14.603541 19,19.069027 19,23.534514 19,28 Z"
     id="path3"
     inkscape:connector-curvature="0" /><path
     style="fill:#7383bf;"
     d="m 8,26 c 14,0 28,0 42,0 0,10.666667 0,21.333333 0,32 C 36,58 22,58 8,58 8,47.333333 8,36.666667 8,26 Z"
     id="rect5"
     inkscape:connector-curvature="0" /><path
     style="fill:#6879af"
     d="m 29,26 c 7,0 14,0 21,0 0,10.666667 0,21.333333 0,32 -7,0 -14,0 -21,0 0,-10.666667 0,-21.333333 0,-32 z"
     id="rect7"
     inkscape:connector-curvature="0" /><path
     style="fill:#ebba16"
     d="m 42.586,57 c 2.138,-2.138 4.276,-4.276 6.414,-6.414 0,-1.195333 0,-2.390667 0,-3.586 -1.862,0 -3.724,0 -5.586,0 -3.333333,3.333333 -6.666667,6.666667 -10,10 3.057333,0 6.114667,0 9.172,0 z"
     id="polygon9"
     inkscape:connector-curvature="0" /><path
     style="fill:#4f5970"
     d="m 9,47 c 0,2.528667 0,5.057333 0,7.586 C 11.528667,52.057333 14.057333,49.528667 16.586,47 14.057333,47 11.528667,47 9,47 Z"
     id="polygon11"
     inkscape:connector-curvature="0" /><path
     style="fill:#424a60"
     d="m 30.586,57 c 3.333333,-3.333333 6.666667,-6.666667 10,-10 -3.057333,0 -6.114667,0 -9.172,0 -3.333333,3.333333 -6.666667,6.666667 -10,10 3.057333,0 6.114667,0 9.172,0 z"
     id="polygon13"
     inkscape:connector-curvature="0" /><path
     style="fill:#eacc18"
     d="m 28.586,47 c -3.057333,0 -6.114667,0 -9.172,0 -3.235667,3.235667 -6.471333,6.471333 -9.707,9.707 -1.5659471,0.549934 1.079186,0.189212 1.727742,0.293 2.383753,0 4.767505,0 7.151258,0 3.333333,-3.333333 6.666667,-6.666667 10,-10 z"
     id="path15"
     inkscape:connector-curvature="0" /><path
     style="fill:#424a60"
     d="m 49,57 c 0,-1.195333 0,-2.390667 0,-3.586 -1.195333,1.195333 -2.390667,2.390667 -3.586,3.586 1.195333,0 2.390667,0 3.586,0 z"
     id="polygon17"
     inkscape:connector-curvature="0" /><path
     style="fill:#4f5970"
     d="m 29,49.414 c -2.528667,2.528667 -5.057333,5.057333 -7.586,7.586 2.528667,0 5.057333,0 7.586,0 0,-2.528667 0,-5.057333 0,-7.586 z"
     id="polygon19"
     inkscape:connector-curvature="0" /><g
     id="g21" /><g
     id="g23" /><g
     id="g25" /><g
     id="g27" /><g
     id="g29" /><g
     id="g31" /><g
     id="g33" /><g
     id="g35" /><g
     id="g37" /><g
     id="g39" /><g
     id="g41" /><g
     id="g43" /><g
     id="g45" /><g
     id="g47" /><g
     id="g49" /></svg>