<svg width="47" height="37" viewBox="0 0 47 37" version="1.1" xmlns="http://www.w3.org/2000/svg" xmlns:xlink="http://www.w3.org/1999/xlink">
<title>Wedge</title>
<desc>Created using Figma</desc>
<g id="Canvas" transform="translate(-1591 61)">
<g id="Wedge">
<g id="Group">
<g id="Vector 3">
<use xlink:href="#path0_fill" transform="matrix(1.02495 -0.00595443 0.00661451 0.972955 1591.27 -44.9807)" fill="#FFFFFF"/>
</g>
<g id="Vector 3">
<use xlink:href="#path1_fill" transform="matrix(1.02495 -0.00595443 0.00661451 0.972955 1596.03 -38.4196)" fill="#FFFFFF"/>
</g>
<g id="Vector 3">
<use xlink:href="#path2_fill" transform="matrix(1.02495 -0.00595443 0.00661451 0.972955 1625.19 -60.5122)" fill="#FFFFFF"/>
</g>
</g>
</g>
</g>
<defs>
<path id="path0_fill" d="M 4.60105 20.2693C -2.63018 18.4391 -0.611067 7.64101 5.63407 6.77168C 12.1135 6.89137 16.8056 9.32015 20.2751 11.1914C 22.038 12.1422 23.4853 12.9491 24.691 13.236C 24.7895 13.2594 24.8886 13.2865 24.99 13.2854C 26.504 13.2691 28.9209 8.02196 31.7745 2.62153C 32.2379 1.74448 32.7128 0.863384 33.1973 0L 36.7033 1.76963C 34.2732 6.26049 29.7247 15.0981 26.538 17.925C 25.8791 18.5096 25.1115 18.9779 24.3044 19.3308C 23.4162 19.7193 22.2696 20.0241 20.9727 20.2571C 15.472 21.2456 7.26687 20.944 4.60105 20.2693Z"/>
<path id="path1_fill" d="M 0 13.4976L 1.03302 0C 7.51245 0.119689 12.2045 2.54847 15.674 4.41973L 16.3717 13.4854C 10.8709 14.4739 2.66583 14.1723 0 13.4976Z"/>
<path id="path2_fill" d="M 8.38838 0L 0 15.7601L 3.50598 17.5297L 11.8944 1.76963L 8.38838 0Z"/>
</defs>
</svg>
